PathFileType	4	(X/Y/Z)	C:/Users/opensim2020/Desktop/walking_exp_matlab/subject06_walking19_straight_03.trc	
DataRate	CameraRate	NumFrames	NumMarkers	Units	OrigDataRate	OrigDataStartFrame	OrigNumFrames	
100.00	100.00	4	49	mm	100.00	3535	358	
Frame#	Time	LFHD			RFHD			LBHD			RBHD			C7			T10			CLAV			STRN			RBAK			LSHO			LUPA			LELB			LFRM			LWRA			LWRB			LFIN			RSHO			RUPA			RELB			RFRM			RWRA			RWRB			RFIN			LASI			RASI			LPSI			RPSI			LTHI			LKNE			LTIB			LANK			LHEE			LTOE			RTHI			RKNE			RTIB			RANK			RHEE			RTOE			*39			*40			*41			*42			*43			*44			*45			*46			*47			*48			
		X1	Y1	Z1	X2	Y2	Z2	X3	Y3	Z3	X4	Y4	Z4	X5	Y5	Z5	X6	Y6	Z6	X7	Y7	Z7	X8	Y8	Z8	X9	Y9	Z9	X10	Y10	Z10	X11	Y11	Z11	X12	Y12	Z12	X13	Y13	Z13	X14	Y14	Z14	X15	Y15	Z15	X16	Y16	Z16	X17	Y17	Z17	X18	Y18	Z18	X19	Y19	Z19	X20	Y20	Z20	X21	Y21	Z21	X22	Y22	Z22	X23	Y23	Z23	X24	Y24	Z24	X25	Y25	Z25	X26	Y26	Z26	X27	Y27	Z27	X28	Y28	Z28	X29	Y29	Z29	X30	Y30	Z30	X31	Y31	Z31	X32	Y32	Z32	X33	Y33	Z33	X34	Y34	Z34	X35	Y35	Z35	X36	Y36	Z36	X37	Y37	Z37	X38	Y38	Z38	X39	Y39	Z39	X40	Y40	Z40	X41	Y41	Z41	X42	Y42	Z42	X43	Y43	Z43	X44	Y44	Z44	X45	Y45	Z45	X46	Y46	Z46	X47	Y47	Z47	X48	Y48	Z48	X49	Y49	Z49	

269	2.680	1400.59961	473.40814	1681.22791	1531.07593	476.93079	1668.78430	1403.65833	343.78860	1618.79980	1533.07776	348.83362	1611.96460	1456.83313	350.28516	1464.68420	1464.44739	317.35019	1136.67627	1457.20935	460.28967	1388.41406	1450.33533	501.18213	1212.22351	1537.48584	279.52618	1293.55908	1295.39380	408.69931	1419.09570	1226.62964	415.94489	1214.71729	1217.18567	419.79327	1102.25952	1197.74939	463.53522	957.83478	1240.58960	540.30786	854.35803	1204.38403	481.41507	839.70447	1204.79309	534.11896	765.68304	1618.33447	417.31073	1419.58887	1707.19751	384.68948	1220.45935	1718.55481	398.75381	1098.81067	1731.21545	428.61084	982.11353	1690.64331	503.38037	853.34399	1734.44067	453.43906	846.82672	1732.23315	500.50220	776.60651	1346.50452	484.11780	973.94800	1566.19641	495.22247	977.88843	1378.96521	328.47336	1003.95184	1547.58142	342.78156	1008.25299	1291.65479	445.51276	656.73462	1313.36792	467.79205	495.64600	1307.80347	323.69568	290.69061	1335.93457	236.50206	139.58383	1384.07080	194.76804	136.83620	1324.58374	351.44656	57.44168	1614.63928	453.20273	644.91656	1584.83008	459.56470	521.40735	1587.47961	409.96500	258.40616	1543.47644	383.50940	72.92374	1504.81274	337.55887	47.87854	1524.87903	530.87329	43.37165	1462.95569	372.09857	1713.03052																											 
270	2.690	1400.74890	479.06540	1681.26062	1530.95056	482.32013	1668.93408	1403.93005	349.33725	1618.93604	1533.38611	354.34390	1612.25232	1457.50647	355.85178	1464.89685	1465.44751	322.92648	1136.81958	1457.80286	465.79495	1388.54395	1451.12122	506.52475	1212.33252	1538.53186	285.10855	1293.94666	1295.98096	413.78171	1419.12622	1226.81494	419.35971	1214.75134	1217.39575	422.32169	1102.29297	1197.36938	464.24387	957.45819	1239.60266	539.88556	852.84143	1203.52515	480.66431	839.16992	1203.55847	532.42566	764.36377	1618.90588	423.11490	1419.98755	1708.09229	390.51630	1221.01147	1719.32166	404.64020	1099.35046	1731.99414	435.14413	982.87317	1690.88770	510.68637	854.68298	1734.90088	460.90958	847.73450	1732.38000	508.41040	777.84583	1347.31287	489.24026	974.35419	1566.89148	500.35056	977.57672	1379.48682	333.52365	1004.39880	1548.16028	348.18884	1008.25128	1291.92834	452.98239	657.70819	1314.16333	476.62836	496.77240	1308.40125	337.73245	287.85605	1336.51196	255.20265	133.99921	1384.64233	213.34685	129.79080	1325.03491	372.82602	56.70340	1614.16821	457.62454	644.49066	1584.92847	462.84732	520.96021	1587.42920	411.44366	258.25803	1543.41943	383.60886	72.88704	1504.82178	337.53372	47.89929	1524.81177	530.94379	43.35006	1463.01843	377.74582	1713.23889																											 
271	2.700	1400.85461	484.72028	1681.20532	1531.01135	487.94943	1669.14148	1404.15198	354.94849	1618.97998	1533.52100	360.06683	1612.56689	1458.14990	361.51257	1465.07056	1466.52307	328.07278	1137.00244	1458.33362	471.32114	1388.59839	1451.89063	511.89777	1212.34595	1539.52722	290.73566	1294.29358	1296.55396	418.88617	1419.03723	1227.13745	422.79904	1214.70642	1217.51440	424.86365	1102.25964	1196.93823	465.02106	957.08154	1238.60095	539.51428	851.34058	1202.58594	480.06281	838.61121	1202.30090	530.75806	763.06952	1619.52197	428.94672	1420.33154	1709.02417	396.44647	1221.44531	1720.31592	410.70090	1099.84045	1732.73169	441.77075	983.53406	1691.07861	517.95648	855.93500	1735.34814	468.35449	848.63574	1731.90308	515.87372	778.72693	1347.93359	494.33682	974.76007	1567.49512	505.40295	977.32263	1380.13037	338.98386	1004.78986	1548.67639	353.30997	1008.25720	1292.16589	460.24619	658.65125	1314.80286	485.31610	497.85327	1308.81262	352.13416	284.80750	1337.11304	274.26126	128.49084	1385.19165	232.55161	122.85844	1325.63232	394.74393	55.77185	1615.30725	459.97528	644.30548	1584.87854	465.92734	520.49304	1587.27551	413.04807	258.15771	1543.43604	383.96698	72.91017	1504.84387	337.61627	47.91722	1524.94055	531.39948	43.55057	1463.03418	383.42563	1713.37756																											 
272	2.710	1400.87354	490.37439	1681.10010	1531.22644	493.85339	1669.39282	1404.30505	360.71155	1618.89441	1533.68188	365.81146	1612.74048	1458.82300	367.20615	1465.23425	1467.54370	333.31934	1137.21643	1458.84485	476.90369	1388.59973	1452.61877	517.25500	1212.27087	1540.47754	296.41159	1294.53040	1297.07141	424.01556	1418.88477	1227.41748	426.23331	1214.56982	1217.64050	427.18677	1102.22522	1196.46204	465.83447	956.58392	1237.55896	539.18048	849.86609	1201.78442	479.45276	837.94189	1201.07654	529.20410	761.82593	1620.07568	434.80389	1420.57971	1709.92798	402.40219	1221.83105	1721.21265	416.55801	1100.23108	1733.35974	448.23615	984.11615	1691.23083	525.15698	857.11029	1735.66455	475.87012	849.41266	1732.45520	524.35944	780.14758	1348.59717	499.51233	975.07867	1568.09460	510.45474	977.01581	1380.64514	343.93051	1005.09680	1549.29089	358.14529	1008.25891	1292.14417	467.47739	659.50012	1315.35059	493.96548	498.86685	1309.20862	366.75928	281.80164	1337.76404	293.95535	123.07410	1385.86023	252.36464	116.03584	1326.45044	416.98456	54.80139	1615.17395	464.05371	643.80383	1585.09058	469.29333	520.16888	1587.00281	414.64871	258.04596	1543.30151	384.25787	72.95171	1504.91895	337.38861	48.43450	1524.77856	531.61145	43.55505	1462.97937	389.07504	1713.40271																											 
